<svg id="Layer_1" data-name="Layer 1" xmlns="http://www.w3.org/2000/svg" xmlns:xlink="http://www.w3.org/1999/xlink" viewBox="0 0 420 238"><defs><style>.cls-1{fill:none;}.cls-2{clip-path:url(#clip-path);}.cls-3{fill:url(#linear-gradient);}.cls-4{fill:url(#linear-gradient-2);}.cls-5{fill:url(#linear-gradient-3);}.cls-6{fill:url(#linear-gradient-4);}.cls-7,.cls-77{opacity:0.13;}.cls-8{fill:#353a4d;}.cls-9{fill:#4472c4;}.cls-10{fill:url(#linear-gradient-5);}.cls-11{fill:url(#linear-gradient-6);}.cls-12{fill:url(#linear-gradient-7);}.cls-13,.cls-59,.cls-60,.cls-81{opacity:0.2;}.cls-13,.cls-14,.cls-15,.cls-16,.cls-17,.cls-47,.cls-59,.cls-60,.cls-64,.cls-73,.cls-74,.cls-77,.cls-81{isolation:isolate;}.cls-13{fill:url(#linear-gradient-8);}.cls-14{opacity:0.1;}.cls-15{opacity:0.17;}.cls-16,.cls-64{opacity:0.05;}.cls-17{opacity:0.07;}.cls-18{fill:url(#linear-gradient-9);}.cls-19{fill:url(#linear-gradient-10);}.cls-20{fill:url(#linear-gradient-11);}.cls-21{fill:url(#linear-gradient-12);}.cls-22{fill:url(#linear-gradient-13);}.cls-23{fill:url(#linear-gradient-14);}.cls-24{fill:url(#linear-gradient-15);}.cls-25{fill:url(#linear-gradient-16);}.cls-26{fill:url(#linear-gradient-17);}.cls-27{fill:url(#linear-gradient-18);}.cls-28{fill:url(#linear-gradient-19);}.cls-29{fill:url(#linear-gradient-20);}.cls-30{fill:url(#linear-gradient-21);}.cls-31{fill:url(#linear-gradient-22);}.cls-32{fill:url(#linear-gradient-23);}.cls-33{fill:url(#linear-gradient-24);}.cls-34{fill:url(#linear-gradient-25);}.cls-35{fill:url(#linear-gradient-26);}.cls-36{fill:url(#linear-gradient-27);}.cls-37{fill:url(#linear-gradient-28);}.cls-38{fill:url(#linear-gradient-29);}.cls-39{fill:url(#linear-gradient-30);}.cls-40{fill:url(#linear-gradient-31);}.cls-41{fill:url(#linear-gradient-32);}.cls-42{fill:url(#linear-gradient-33);}.cls-43{fill:url(#linear-gradient-34);}.cls-44{fill:url(#linear-gradient-35);}.cls-45{fill:url(#linear-gradient-36);}.cls-46{fill:url(#linear-gradient-37);}.cls-47{fill:#1d2741;opacity:0.57;}.cls-48{fill:url(#linear-gradient-38);}.cls-49{fill:url(#linear-gradient-39);}.cls-50{fill:url(#linear-gradient-40);}.cls-51{fill:url(#linear-gradient-41);}.cls-52{fill:url(#linear-gradient-42);}.cls-53{fill:url(#linear-gradient-43);}.cls-54{fill:url(#linear-gradient-44);}.cls-55{fill:url(#linear-gradient-45);}.cls-56{fill:url(#linear-gradient-46);}.cls-57{fill:url(#linear-gradient-47);}.cls-58{fill:url(#linear-gradient-48);}.cls-59{fill:url(#linear-gradient-49);}.cls-60{fill:url(#linear-gradient-50);}.cls-61{fill:#3f3d56;}.cls-62{fill:url(#linear-gradient-51);}.cls-63{fill:url(#linear-gradient-52);}.cls-64{fill:#000405;}.cls-65{fill:#033b4b;}.cls-66{fill:url(#linear-gradient-53);}.cls-67{fill:url(#linear-gradient-54);}.cls-68{fill:url(#linear-gradient-55);}.cls-69{fill:url(#linear-gradient-56);}.cls-70{fill:url(#linear-gradient-57);}.cls-71{fill:url(#linear-gradient-58);}.cls-72{fill:url(#linear-gradient-59);}.cls-73,.cls-74{opacity:0.61;}.cls-73{fill:url(#linear-gradient-60);}.cls-74{fill:url(#linear-gradient-61);}.cls-75{fill:#c7fdfb;}.cls-76{fill:url(#linear-gradient-62);}.cls-77{fill:url(#linear-gradient-63);}.cls-78{fill:url(#linear-gradient-64);}.cls-79{fill:url(#linear-gradient-65);}.cls-80{fill:url(#linear-gradient-66);}.cls-81{fill:url(#linear-gradient-67);}.cls-82{fill:#a5856d;}.cls-83{fill:url(#linear-gradient-68);}.cls-84{fill:#3e3e54;}.cls-85{fill:url(#linear-gradient-69);}.cls-86{fill:url(#linear-gradient-70);}.cls-87{fill:#68e1fd;}.cls-88{fill:url(#linear-gradient-71);}.cls-89{fill:url(#linear-gradient-72);}</style><clipPath id="clip-path"><rect id="SVGID" class="cls-1" x="0.19" y="0.08" width="419.61" height="237.92"/></clipPath><linearGradient id="linear-gradient" x1="-1.26" y1="1426.67" x2="-0.26" y2="1426.67" gradientTransform="matrix(2.25, 263.03, -263.03, 2.25, 375472.13, -2903.3)" gradientUnits="userSpaceOnUse"><stop offset="0" stop-color="#4a85c4" stop-opacity="0"/><stop offset="1" stop-color="#4a85c4"/></linearGradient><linearGradient id="linear-gradient-2" x1="-4.23" y1="1428.15" x2="-3.23" y2="1428.15" gradientTransform="matrix(-23.71, 108.4, -108.4, -23.71, 154771.68, 34311.5)" xlink:href="#linear-gradient"/><linearGradient id="linear-gradient-3" x1="-15.15" y1="1430.67" x2="-14.15" y2="1430.67" gradientTransform="matrix(-7.9, 35, -35, -7.9, 49985.63, 12015.03)" xlink:href="#linear-gradient"/><linearGradient id="linear-gradient-4" x1="-12.84" y1="1431.77" x2="-11.84" y2="1431.77" gradientTransform="matrix(-13.17, 38.39, -38.39, -13.17, 54815.99, 19508.52)" xlink:href="#linear-gradient"/><linearGradient id="linear-gradient-5" x1="116.65" y1="1192.99" x2="138.83" y2="1192.99" gradientTransform="translate(-60.01 -1004.35)" gradientUnits="userSpaceOnUse"><stop offset="0" stop-color="#fff" stop-opacity="0"/><stop offset="0.09" stop-color="#fff" stop-opacity="0.05"/><stop offset="0.24" stop-color="#fff" stop-opacity="0.1"/><stop offset="0.45" stop-color="#fff" stop-opacity="0.2"/><stop offset="0.69" stop-color="#fff" stop-opacity="0.3"/><stop offset="0.98" stop-color="#fff" stop-opacity="0.3"/></linearGradient><linearGradient id="linear-gradient-6" x1="127.93" y1="1109.11" x2="126.83" y2="1238.95" gradientTransform="translate(-60.01 -1004.35)" gradientUnits="userSpaceOnUse"><stop offset="0" stop-opacity="0"/><stop offset="0.91" stop-opacity="0.8"/><stop offset="1"/></linearGradient><linearGradient id="linear-gradient-7" x1="127.25" y1="1080.04" x2="128.05" y2="1013.64" gradientTransform="matrix(1, 0, 0, -1, -60.01, 1251.62)" xlink:href="#linear-gradient-6"/><linearGradient id="linear-gradient-8" x1="122.32" y1="1188.21" x2="113.06" y2="1197.54" gradientTransform="translate(-60.01 -1004.35)" gradientUnits="userSpaceOnUse"><stop offset="0" stop-color="#183866"/><stop offset="1" stop-color="#1a7fc1"/></linearGradient><linearGradient id="linear-gradient-9" x1="248.29" y1="1113.67" x2="261.45" y2="1109.99" gradientTransform="matrix(1, 0, 0, -1, -60.01, 1251.62)" xlink:href="#linear-gradient-6"/><linearGradient id="linear-gradient-10" x1="252.27" y1="1103.84" x2="260.89" y2="1089.35" gradientTransform="matrix(1, 0, 0, -1, -60.01, 1251.62)" xlink:href="#linear-gradient-6"/><linearGradient id="linear-gradient-11" x1="252.99" y1="1138.62" x2="255.67" y2="1138.62" xlink:href="#linear-gradient-8"/><linearGradient id="linear-gradient-12" x1="255.77" y1="1108.6" x2="245.78" y2="1103.23" gradientTransform="matrix(1, 0, 0, -1, -60.01, 1251.62)" xlink:href="#linear-gradient-6"/><linearGradient id="linear-gradient-13" x1="257.63" y1="1143.05" x2="253.72" y2="1143.94" gradientTransform="translate(-60.01 -1004.35)" gradientUnits="userSpaceOnUse"><stop offset="0" stop-color="#68e1fd"/><stop offset="1" stop-color="#69b9eb"/></linearGradient><linearGradient id="linear-gradient-14" x1="256.19" y1="1153.35" x2="252.27" y2="1154.24" xlink:href="#linear-gradient-13"/><linearGradient id="linear-gradient-15" x1="251.32" y1="1112.61" x2="267.53" y2="1130.44" gradientTransform="translate(-60.01 -1004.35)" gradientUnits="userSpaceOnUse"><stop offset="0" stop-color="#fff" stop-opacity="0"/><stop offset="0.09" stop-color="#fff" stop-opacity="0.05"/><stop offset="0.24" stop-color="#fff" stop-opacity="0.17"/><stop offset="0.45" stop-color="#fff" stop-opacity="0.37"/><stop offset="0.69" stop-color="#fff" stop-opacity="0.65"/><stop offset="0.98" stop-color="#fff"/></linearGradient><linearGradient id="linear-gradient-16" x1="247.07" y1="1121.71" x2="266.53" y2="1144.64" xlink:href="#linear-gradient-15"/><linearGradient id="linear-gradient-17" x1="256.64" y1="1036.37" x2="255.03" y2="1227.5" xlink:href="#linear-gradient-6"/><linearGradient id="linear-gradient-18" x1="254.99" y1="1036.36" x2="253.38" y2="1227.49" xlink:href="#linear-gradient-6"/><linearGradient id="linear-gradient-19" x1="256.29" y1="1144.51" x2="255.35" y2="1108.95" gradientTransform="matrix(1, 0, 0, -1, -60.01, 1251.62)" xlink:href="#linear-gradient-6"/><linearGradient id="linear-gradient-20" x1="258.19" y1="1130.21" x2="253.53" y2="1131.28" xlink:href="#linear-gradient-13"/><linearGradient id="linear-gradient-21" x1="229.29" y1="1127.56" x2="244.73" y2="1145.7" xlink:href="#linear-gradient-15"/><linearGradient id="linear-gradient-22" x1="242.78" y1="1128.66" x2="251.26" y2="1138.63" xlink:href="#linear-gradient-15"/><linearGradient id="linear-gradient-23" x1="228.53" y1="1147.12" x2="245.79" y2="1164.95" xlink:href="#linear-gradient-15"/><linearGradient id="linear-gradient-24" x1="238.53" y1="1036.22" x2="236.92" y2="1227.35" xlink:href="#linear-gradient-6"/><linearGradient id="linear-gradient-25" x1="232.78" y1="1036.17" x2="231.17" y2="1227.3" xlink:href="#linear-gradient-6"/><linearGradient id="linear-gradient-26" x1="238.2" y1="1129.54" x2="237.03" y2="1088.07" gradientTransform="matrix(1, 0, 0, -1, -60.01, 1251.62)" xlink:href="#linear-gradient-6"/><linearGradient id="linear-gradient-27" x1="232.08" y1="1114.56" x2="231.85" y2="1079.56" gradientTransform="matrix(1, 0, 0, -1, -60.01, 1251.62)" xlink:href="#linear-gradient-6"/><linearGradient id="linear-gradient-28" x1="226.21" y1="1099.1" x2="251.7" y2="1116.94" xlink:href="#linear-gradient-15"/><linearGradient id="linear-gradient-29" x1="223.05" y1="1111.3" x2="249.69" y2="1133.07" xlink:href="#linear-gradient-15"/><linearGradient id="linear-gradient-30" x1="237.32" y1="1036.21" x2="235.71" y2="1227.34" xlink:href="#linear-gradient-6"/><linearGradient id="linear-gradient-31" x1="235.45" y1="1036.19" x2="233.84" y2="1227.33" xlink:href="#linear-gradient-6"/><linearGradient id="linear-gradient-32" x1="236.83" y1="1155.8" x2="237.3" y2="1114.92" gradientTransform="matrix(1, 0, 0, -1, -60.01, 1251.62)" xlink:href="#linear-gradient-6"/><linearGradient id="linear-gradient-33" x1="235.03" y1="1143.63" x2="234.56" y2="1095.16" gradientTransform="matrix(1, 0, 0, -1, -60.01, 1251.62)" xlink:href="#linear-gradient-6"/><linearGradient id="linear-gradient-34" x1="187.45" y1="1130.81" x2="191.94" y2="1130.81" gradientTransform="translate(-178.67 -1008.12)" xlink:href="#linear-gradient-15"/><linearGradient id="linear-gradient-35" x1="180.92" y1="1106.36" x2="191.6" y2="1106.36" gradientTransform="translate(-178.67 -1008.12)" xlink:href="#linear-gradient-15"/><linearGradient id="linear-gradient-36" x1="187.53" y1="1155.47" x2="244.77" y2="1155.47" gradientTransform="translate(-178.67 -1008.12)" xlink:href="#linear-gradient-15"/><linearGradient id="linear-gradient-37" x1="188.09" y1="1154.43" x2="244.77" y2="1154.43" gradientTransform="translate(-178.67 -1008.12)" xlink:href="#linear-gradient-15"/><linearGradient id="linear-gradient-38" x1="76.63" y1="1156.04" x2="81.15" y2="1156.04" xlink:href="#linear-gradient-15"/><linearGradient id="linear-gradient-39" x1="77.81" y1="1083.86" x2="77.99" y2="1100.95" gradientTransform="matrix(1, 0, 0, -1, -59.97, 1251.66)" xlink:href="#linear-gradient-6"/><linearGradient id="linear-gradient-40" x1="115.97" y1="1083.43" x2="116.15" y2="1100.52" gradientTransform="matrix(1, 0, 0, -1, -60.01, 1251.62)" xlink:href="#linear-gradient-6"/><linearGradient id="linear-gradient-41" x1="75.92" y1="1155.01" x2="80.42" y2="1156.57" xlink:href="#linear-gradient-15"/><linearGradient id="linear-gradient-42" x1="112.97" y1="1156.04" x2="117.49" y2="1156.04" xlink:href="#linear-gradient-15"/><linearGradient id="linear-gradient-43" x1="93.09" y1="1103.62" x2="112.78" y2="1133.73" xlink:href="#linear-gradient-15"/><linearGradient id="linear-gradient-44" x1="74.42" y1="1137" x2="107.06" y2="1137" xlink:href="#linear-gradient-15"/><linearGradient id="linear-gradient-45" x1="100.29" y1="1013.6" x2="98.69" y2="1204.74" xlink:href="#linear-gradient-6"/><linearGradient id="linear-gradient-46" x1="91.01" y1="1013.52" x2="89.4" y2="1204.66" xlink:href="#linear-gradient-6"/><linearGradient id="linear-gradient-47" x1="99.51" y1="1161.3" x2="100.69" y2="1063.56" gradientTransform="matrix(1, 0, 0, -1, -60.01, 1251.62)" xlink:href="#linear-gradient-6"/><linearGradient id="linear-gradient-48" x1="90.02" y1="1144.07" x2="91.19" y2="1046.34" gradientTransform="matrix(1, 0, 0, -1, -60.01, 1251.62)" xlink:href="#linear-gradient-6"/><linearGradient id="linear-gradient-49" x1="90.61" y1="1107.05" x2="78.18" y2="1119.58" xlink:href="#linear-gradient-8"/><linearGradient id="linear-gradient-50" x1="82.76" y1="1129.97" x2="69.13" y2="1143.71" xlink:href="#linear-gradient-8"/><linearGradient id="linear-gradient-51" x1="131.24" y1="1114.27" x2="180.87" y2="1127.89" gradientTransform="matrix(1, 0, 0, -1, 0.02, 1254.39)" gradientUnits="userSpaceOnUse"><stop offset="0" stop-color="#68e1fd" stop-opacity="0"/><stop offset="0.02" stop-color="#66daf6" stop-opacity="0.04"/><stop offset="0.18" stop-color="#58a1bc" stop-opacity="0.39"/><stop offset="0.35" stop-color="#4d758f" stop-opacity="0.66"/><stop offset="0.53" stop-color="#45566f" stop-opacity="0.85"/><stop offset="0.73" stop-color="#40435c" stop-opacity="0.96"/><stop offset="0.99" stop-color="#3f3d56"/></linearGradient><linearGradient id="linear-gradient-52" x1="160.44" y1="927.17" x2="126.18" y2="928.73" gradientTransform="translate(-0.05 -829)" xlink:href="#linear-gradient-6"/><linearGradient id="linear-gradient-53" x1="157.82" y1="1173.59" x2="163.46" y2="1173.59" gradientTransform="matrix(1, 0, 0, -1, 0.02, 1254.39)" gradientUnits="userSpaceOnUse"><stop offset="0" stop-color="#ecc4d7"/><stop offset="0.42" stop-color="#efd4d1"/><stop offset="1" stop-color="#f2eac9"/></linearGradient><linearGradient id="linear-gradient-54" x1="160.51" y1="1176.63" x2="166.41" y2="1151.97" xlink:href="#linear-gradient-53"/><linearGradient id="linear-gradient-55" x1="152.69" y1="1181.42" x2="164.68" y2="1181.42" xlink:href="#linear-gradient-53"/><linearGradient id="linear-gradient-56" x1="149.59" y1="913" x2="150.5" y2="937.72" gradientTransform="translate(-0.05 -829)" xlink:href="#linear-gradient-6"/><linearGradient id="linear-gradient-57" x1="155.8" y1="1155.92" x2="164.28" y2="1155.92" xlink:href="#linear-gradient-53"/><linearGradient id="linear-gradient-58" x1="158.48" y1="1158.06" x2="160.33" y2="1158.06" xlink:href="#linear-gradient-53"/><linearGradient id="linear-gradient-59" x1="147.43" y1="1152.5" x2="156" y2="1152.5" xlink:href="#linear-gradient-53"/><linearGradient id="linear-gradient-60" x1="155.9" y1="1098.69" x2="153.37" y2="1103.46" gradientTransform="matrix(1, 0, 0, -1, 0.02, 1254.39)" gradientUnits="userSpaceOnUse"><stop offset="0.36" stop-color="#00272e"/><stop offset="1" stop-color="#69b9eb" stop-opacity="0"/></linearGradient><linearGradient id="linear-gradient-61" x1="165.76" y1="1097.99" x2="162.16" y2="1102.27" xlink:href="#linear-gradient-60"/><linearGradient id="linear-gradient-62" x1="163.41" y1="1156.08" x2="166.07" y2="1148.85" xlink:href="#linear-gradient-53"/><linearGradient id="linear-gradient-63" x1="137.78" y1="1162.66" x2="144.31" y2="1162.66" gradientTransform="matrix(1, 0, 0, -1, 0.02, 1254.39)" xlink:href="#linear-gradient-13"/><linearGradient id="linear-gradient-64" x1="161.65" y1="1086.99" x2="183.83" y2="1086.99" xlink:href="#linear-gradient-5"/><linearGradient id="linear-gradient-65" x1="172.93" y1="1003.11" x2="171.83" y2="1132.95" xlink:href="#linear-gradient-6"/><linearGradient id="linear-gradient-66" x1="172.25" y1="1186.04" x2="173.05" y2="1119.64" gradientTransform="matrix(1, 0, 0, -1, -60.01, 1251.62)" xlink:href="#linear-gradient-6"/><linearGradient id="linear-gradient-67" x1="167.32" y1="1082.21" x2="158.06" y2="1091.54" xlink:href="#linear-gradient-8"/><linearGradient id="linear-gradient-68" x1="145.94" y1="1305.07" x2="139.68" y2="1287" gradientTransform="matrix(1, 0, 0, -1, -66.32, 1420.96)" gradientUnits="userSpaceOnUse"><stop offset="0.01"/><stop offset="0.13" stop-opacity="0.69"/><stop offset="1" stop-opacity="0"/></linearGradient><linearGradient id="linear-gradient-69" x1="164.03" y1="1326.74" x2="150.78" y2="1324.78" xlink:href="#linear-gradient-68"/><linearGradient id="linear-gradient-70" x1="164.03" y1="1302.73" x2="137.67" y2="1302.41" xlink:href="#linear-gradient-68"/><linearGradient id="linear-gradient-71" x1="124.08" y1="1285.01" x2="140.49" y2="1287.95" xlink:href="#linear-gradient-68"/><linearGradient id="linear-gradient-72" x1="149.05" y1="1265.63" x2="158.92" y2="1275.75" xlink:href="#linear-gradient-68"/></defs><title>hero</title><rect class="cls-1" x="0.19" y="0.08" width="419.61" height="237.92"/><g class="cls-2"><path class="cls-3" d="M422-.36l-.51,217.28s-90.38,12.61-135.86,15.9c-53.1,3.87-145.23-3-183.16-9.22-16.33-2.49-42.17-9.64-46.39-11.44-3.44-1.82-7.14-3.36-10.57-5.44C25.4,195.06,7.07,175,4,151.31c-3.36-23.65,6.16-47.93,22.59-64.64,9.65-9.81,21.16-17.28,32.41-25,5.23-3.47,9.67-7.45,14.63-11.44,3.92-3.45,8.89-5.86,10.69-11.14,2.31-6.59-1.42-12.35-5.41-17.31-4-4.44-8.75-8.87-9.33-14.92A12.3,12.3,0,0,1,70.81,0Z"/><path class="cls-4" d="M47.57,10.51A42.39,42.39,0,0,1,73.71,27c1.58,2.17,3.08,4.65,2.83,7.32a10.39,10.39,0,0,1-2,4.91c-5.79,8.28-16.3,9.61-24.94,5-4.71-2.39-8.51-6.29-11.68-10.5-2.44-3.38-4.59-7-5.17-11.13s1-8.64,4.41-10.85a11.19,11.19,0,0,1,6.15-1.61A31.45,31.45,0,0,1,47.57,10.51Z"/><path class="cls-5" d="M25.48,198.25c3,1.31,6.24,3.14,7.19,6.3s-.94,6.74-3.83,8.33a11.47,11.47,0,0,1-9.59.26c-4.67-1.79-12.53-7.24-10.65-13.29,1-3.2,3.6-4.23,6.59-4.25C18.79,195.6,23,197.14,25.48,198.25Z"/><path class="cls-6" d="M13.22,185a3.56,3.56,0,0,1-2,3.6,3.61,3.61,0,0,1-3-.5,9.41,9.41,0,0,1-2.16-2.2,13.72,13.72,0,0,1-2.29-3.83,5.6,5.6,0,0,1,.08-4.35C4.46,176.48,5.19,176,6,176,9,176,13.07,182.78,13.22,185Z"/><g class="cls-7"><path class="cls-8" d="M192.23,158.83c1.23,0,11.24.11,9.59-2.94a2.66,2.66,0,0,0-1.81-1.18c-11.49-3.15-23.57-2.61-35.24-2.87-11.05-.24-22.1-.32-33.14-.43-10.75-.12-21.7-1.21-32.43-.49C72.13,152.74,45,148.5,18,151.11a3.26,3.26,0,0,0-2.09.74c-3.1,3.05,2.85,4.88,4.11,5,10.11,1,20.14-.23,30.21.26q15.49.75,31,.69c13.26,0,26.47.55,39.75.43,13.77-.13,27.55-.25,41.33-.26h3.3c7.27.44,14.55.79,21.84.85h4.81"/></g><g id="Page-2"><g id="BACKGROUND-2"><rect class="cls-9" x="56.64" y="180.07" width="22.18" height="17.13"/><rect class="cls-10" x="56.64" y="180.07" width="22.18" height="17.13"/><rect class="cls-11" x="65.27" y="180" width="4" height="3.13"/><rect class="cls-12" x="67.3" y="183.13" width="0.31" height="12.19"/><rect class="cls-13" x="56.7" y="180.24" width="1.97" height="16.57"/><polygon class="cls-9" points="143.34 171.24 132.54 168.64 132.54 189 143.34 186.17 143.34 171.24"/><polygon class="cls-14" points="143.34 171.24 132.54 168.64 132.54 189 143.34 186.17 143.34 171.24"/><polygon class="cls-9" points="121.74 171.24 132.54 168.64 132.54 189 121.74 186.23 121.74 171.24"/><polygon class="cls-15" points="121.74 171.15 132.54 168.55 132.54 189 121.74 186.23 121.74 171.15"/><polygon class="cls-9" points="132.45 168.73 138.14 164 148.94 166.77 143.25 171.33 132.45 168.73"/><polygon class="cls-9" points="116.28 166.92 121.83 171.33 132.63 168.73 127.14 164.09 116.28 166.92"/><polygon class="cls-16" points="116.2 166.83 121.87 171.33 132.68 168.73 127.06 164 116.2 166.83"/><polygon class="cls-9" points="121.74 171.24 121.74 186.23 132.54 189 132.69 174.13 121.74 171.24"/><polygon class="cls-9" points="143.34 186.17 132.54 189 132.54 174.13 143.34 171.24 143.34 186.17"/><polygon class="cls-17" points="143.34 186.17 132.54 189 132.54 174.13 143.34 171.24 143.34 186.17"/><polygon class="cls-17" points="139.05 181.19 139.05 186.12 143.34 184.93 143.34 180.01 139.05 181.19"/><polygon class="cls-14" points="121.6 179.02 127.65 180.54 132.51 176.59 132.51 174.15 121.71 171.44 121.6 179.02"/><polygon class="cls-14" points="143.43 179.02 137.38 180.54 132.51 176.59 132.51 174.15 143.32 171.44 143.43 179.02"/><polygon class="cls-9" points="121.74 171.24 116.2 175.82 127 178.54 132.54 174.13 121.74 171.24"/><polygon class="cls-9" points="143.34 171.24 148.94 175.82 138.2 178.54 132.54 174.13 143.34 171.24"/><polygon class="cls-17" points="143.34 171.24 148.94 175.82 138.2 178.54 132.54 174.13 143.34 171.24"/></g></g></g><rect class="cls-9" x="186.74" y="133.22" width="14.92" height="10.35"/><rect class="cls-18" x="187.7" y="133.53" width="5.17" height="9.97"/><rect class="cls-9" x="185.72" y="143.57" width="14.92" height="11.52"/><rect class="cls-19" x="185.72" y="143.57" width="14.92" height="11.52"/><rect class="cls-20" x="192.98" y="133.22" width="2.69" height="2.11"/><rect class="cls-21" x="191.52" y="143.52" width="2.69" height="2.11"/><rect class="cls-22" x="194.32" y="135.32" width="0.21" height="8.2"/><rect class="cls-23" x="192.88" y="145.63" width="0.21" height="8.2"/><rect class="cls-9" x="186.95" y="107.08" width="17.77" height="12.33"/><rect class="cls-24" x="186.95" y="107.08" width="17.77" height="12.33"/><rect class="cls-9" x="185.72" y="119.39" width="17.77" height="13.73"/><rect class="cls-25" x="185.72" y="119.39" width="17.77" height="13.73"/><rect class="cls-26" x="194.38" y="107.08" width="3.21" height="2.5"/><rect class="cls-27" x="192.63" y="119.35" width="3.21" height="2.5"/><rect class="cls-28" x="195.96" y="109.58" width="0.25" height="9.76"/><rect class="cls-29" x="194.25" y="121.85" width="0.25" height="9.76"/><rect class="cls-9" x="167.45" y="124.77" width="20.28" height="14.06"/><polygon class="cls-30" points="187.7 133.11 187.7 138.81 167.45 138.81 167.45 124.77 185.72 124.77 185.72 133.11 187.7 133.11"/><rect class="cls-31" x="185.72" y="124.77" width="1.98" height="8.37"/><rect class="cls-9" x="162.13" y="138.81" width="20.28" height="15.67"/><rect class="cls-32" x="162.13" y="138.81" width="20.28" height="15.67"/><rect class="cls-33" x="175.9" y="124.77" width="3.65" height="2.86"/><rect class="cls-34" x="170.03" y="138.77" width="3.65" height="2.86"/><rect class="cls-35" x="177.73" y="127.63" width="0.29" height="11.14"/><rect class="cls-36" x="171.87" y="141.62" width="0.27" height="11.14"/><rect class="cls-9" x="166.47" y="95" width="20.28" height="14.06"/><rect class="cls-37" x="166.47" y="95" width="20.28" height="14.06"/><rect class="cls-9" x="165.07" y="109.06" width="20.28" height="15.67"/><rect class="cls-38" x="165.07" y="109.06" width="20.28" height="15.67"/><rect class="cls-39" x="174.94" y="95" width="3.65" height="2.86"/><rect class="cls-40" x="172.95" y="109" width="3.65" height="2.86"/><rect class="cls-41" x="176.77" y="97.86" width="0.27" height="11.14"/><rect class="cls-42" x="174.79" y="111.86" width="0.27" height="11.14"/><g id="Cart"><path class="cls-9" d="M13.28,145.26H8.79V102.35A2.25,2.25,0,0,1,11,100.12h0a2.27,2.27,0,0,1,2.25,2.23v42.91Z"/><path class="cls-9" d="M12,103.92h0a2.36,2.36,0,0,1-3.3-.42l-6-7.63a2.36,2.36,0,0,1,.42-3.3h0a2.35,2.35,0,0,1,3.3.4h0l6,7.63a2.34,2.34,0,0,1-.38,3.29l0,0Z"/><path class="cls-9" d="M66.1,147.35h0A2.09,2.09,0,0,1,64,149.44h-51a4.19,4.19,0,0,1-4.19-4.18H64a2.1,2.1,0,0,1,2.11,2.07Z"/><path class="cls-9" d="M66.1,147.35h-53a4.18,4.18,0,0,1-3.63-2.09H64a2.11,2.11,0,0,1,2.11,2.09Z"/><path class="cls-43" d="M13.28,145.26H8.79V102.35A2.25,2.25,0,0,1,11,100.12h0a2.27,2.27,0,0,1,2.25,2.23v42.91Z"/><path class="cls-44" d="M12,103.92h0a2.36,2.36,0,0,1-3.3-.42l-6-7.63a2.36,2.36,0,0,1,.42-3.3h0a2.35,2.35,0,0,1,3.3.4h0l6,7.63a2.34,2.34,0,0,1-.38,3.29l0,0Z"/><path class="cls-45" d="M66.1,147.35h0A2.09,2.09,0,0,1,64,149.44h-51a4.19,4.19,0,0,1-4.19-4.18H64a2.1,2.1,0,0,1,2.11,2.07Z"/><path class="cls-46" d="M66.1,147.35h-53a4.18,4.18,0,0,1-3.63-2.09H64a2.11,2.11,0,0,1,2.11,2.09Z"/><circle class="cls-9" cx="17.97" cy="154.28" r="3.46"/><circle class="cls-47" cx="17.99" cy="154.38" r="1.04"/><polygon class="cls-48" points="18.87 153.94 16.62 153.94 16.62 149.44 21.14 149.44 18.87 153.94"/><circle class="cls-9" cx="56.11" cy="154.28" r="3.46"/><circle class="cls-49" cx="17.98" cy="154.28" r="3.46"/><circle class="cls-50" cx="56.11" cy="154.28" r="3.46"/><path class="cls-47" d="M55,154.38a1,1,0,1,0,1.05-1A1,1,0,0,0,55,154.38Z"/><polygon class="cls-9" points="55.21 153.94 57.48 153.94 57.48 149.44 52.96 149.44 55.21 153.94"/><polygon class="cls-9" points="18.87 153.94 16.62 153.94 16.62 149.44 21.14 149.44 18.87 153.94"/><polygon class="cls-51" points="18.87 153.94 16.62 153.94 16.62 149.44 21.14 149.44 18.87 153.94"/><polygon class="cls-52" points="55.21 153.94 57.48 153.94 57.48 149.44 52.96 149.44 55.21 153.94"/></g><rect class="cls-9" x="22.94" y="97.41" width="32.65" height="22.63"/><rect class="cls-53" x="22.94" y="97.41" width="32.65" height="22.63"/><rect class="cls-9" x="14.41" y="120.04" width="32.65" height="25.22"/><rect class="cls-54" x="14.41" y="120.04" width="32.65" height="25.22"/><rect class="cls-55" x="36.58" y="97.41" width="5.88" height="4.61"/><rect class="cls-56" x="27.11" y="119.94" width="5.88" height="4.61"/><rect class="cls-57" x="39.52" y="102" width="0.46" height="17.94"/><rect class="cls-58" x="30.09" y="124.55" width="0.46" height="17.94"/><rect class="cls-59" x="22.94" y="97.97" width="2.9" height="21.99"/><rect class="cls-60" x="14.49" y="120.29" width="2.9" height="24.39"/><path class="cls-61" d="M166.9,154.62a9.31,9.31,0,0,1-6.73,3.51c-3.66,0-1.89-3.43-.69-3.43a4.4,4.4,0,0,0,1-.09l1.5-1.32,1.49-1.33.39-.84s2.08.48,2.45-.07l.27,2.33v.45A1.69,1.69,0,0,1,166.9,154.62Z"/><path class="cls-61" d="M157.91,154.43c0,.35-3.66,2.44-7.26,2.44s-1.89-3.45-.67-3.43h1.22l.69-.34,2.63-1.34.39-.85s2.07.48,2.44-.07l.27,2.37v.43A1.52,1.52,0,0,1,157.91,154.43Z"/><path class="cls-61" d="M157.65,153.64a1.72,1.72,0,0,1,.2.8c0,.35-3.67,2.44-7.26,2.44s-1.89-3.45-.67-3.43h1.22l.69-.34,5.77.1Z"/><path class="cls-61" d="M152.61,155.56a5.56,5.56,0,0,1-2.69,0c-.81-.44-1.06-.77-1-1.11s.52-1.32,2.45-.86,2.28,1.5,2.28,1.5Z"/><path class="cls-61" d="M166.9,154.62a9.31,9.31,0,0,1-6.73,3.51c-3.66,0-1.89-3.43-.69-3.43a4.4,4.4,0,0,0,1-.09l1.5-1.32,4.63.09v.45A1.56,1.56,0,0,1,166.9,154.62Z"/><path class="cls-61" d="M162.21,156.64a5.33,5.33,0,0,1-2.69,0c-.8-.44-1.06-.77-1-1.11s.51-1.32,2.44-.85,2.33,1.45,2.33,1.45Z"/><path class="cls-9" d="M150.41,114.64l3.65,36.19s2.44.88,3.53,0l1.52-28.51,4.28,28.76s2,1.3,3.24-.17l1.6-36.46S155.44,117.08,150.41,114.64Z"/><path class="cls-62" d="M150.41,114.33l3.65,36.2s2.44.87,3.53,0L159.11,122l4.28,28.75s2,1.29,3.24-.18l1.6-36.46S155.44,116.77,150.41,114.33Z"/><path class="cls-9" d="M163.24,80.39a10.2,10.2,0,0,0,1.53,1,13.41,13.41,0,0,0,4.15,1.54c1.92.2,2.73,3.8,3,5.49s2,10.09,2,10.09a3.41,3.41,0,0,1-2.71,3.6c-3.11,1-3,1.51-3,1.51l.06,10.79s-14,3.41-17.8.2L151,100l2.07-15.86L159,81.36Z"/><path class="cls-63" d="M163.24,80.39a10.2,10.2,0,0,0,1.53,1,13.41,13.41,0,0,0,4.15,1.54c1.92.2,2.73,3.8,3,5.49s2,10.09,2,10.09a3.41,3.41,0,0,1-2.71,3.6c-3.11,1-3,1.51-3,1.51l.06,10.79s-14,3.41-17.8.2L151,100l2.07-15.86L159,81.36Z"/><path class="cls-61" d="M163.26,80.08a3.66,3.66,0,0,1-4.87,1.77l-.14-.07s-3,5.26,1.31,4.64c2.3-.34,3.8-4,4.15-5.7Z"/><path class="cls-64" d="M164.25,98.2a27.66,27.66,0,0,0,3.33-1c.38-.25-.55-7.14-.55-7.14s-.34,5.53-7.42,8.18c-3.46,1.29,2.37,3.06,2.37,3.06Z"/><path class="cls-64" d="M163.56,102.73s3.83,1.41,4.59.91v8.42s-9.78-6.33-9.78-7.32-7.47-1.22-7.47-1.22v-2.3l11.35-1.35S164.7,97.74,163.56,102.73Z"/><path class="cls-65" d="M164.21,98.08s0,3.45-.52,4.44-.86-2.44-.86-2.44Z"/><path class="cls-66" d="M163.48,75.87s0,.78-.1,1.8c0,.85-.1,1.87-.14,2.73a5.77,5.77,0,0,1-1.75,3.82,6.49,6.49,0,0,1-2.14,1.45,1.12,1.12,0,0,1-1.47-1.35,8.53,8.53,0,0,0,.39-2c0-.26,0-.52,0-.77a7.44,7.44,0,0,0-.17-1.41c-.66-1.65,4.67-4,5.31-4.25Z"/><path class="cls-67" d="M163.42,75.89a9.77,9.77,0,0,1-1.51,3.8,7.22,7.22,0,0,1-3.64,2.62,5,5,0,0,0,0-.77,7.34,7.34,0,0,0-.17-1.4C157.46,78.5,162.79,76.16,163.42,75.89Z"/><path class="cls-68" d="M158.21,65.56a5.79,5.79,0,0,0-5.49,6.07h0a3.27,3.27,0,0,0,0,.44,19.52,19.52,0,0,0,1.79,6.78c1.89,3.22,6.67.57,7.43-.76s3.66-7.32,2.44-9C163.63,68,161.32,65.44,158.21,65.56Z"/><path class="cls-61" d="M153.16,63.32l1,.5a3.66,3.66,0,0,0-3,1.41,4.91,4.91,0,0,0-1.42,3.37l1.67-.79s-.12,2,3,2.21,6.49.28,6.49.28l-1.07-1.48s2,.8,2.31,1.52a24.54,24.54,0,0,1,.66,3.52s.79-2,1.1-1.57-.35,2.27-.76,2.68-.35,1.62-.38,1.71,2-1.55,2.05-2.11,2.08-6.31.8-7.5l.79-.07a3.71,3.71,0,0,0-1.55-.59S159.66,59.62,153.16,63.32Z"/><path class="cls-9" d="M153.06,84.21s-2.44,1.07-2.76,5.88a47.46,47.46,0,0,1-1.71,9.15c-1.85.18-3.71.28-5.56.28l2.71,2.07a8.22,8.22,0,0,0,3.46,1.55l1.87.42Z"/><path class="cls-9" d="M162.12,100.71a.33.33,0,0,1,0,.14,1,1,0,0,1-1,.86l-18.32-1a1.07,1.07,0,0,1-.46-.14,1,1,0,0,1-.52-.53l-4-11.41a1,1,0,0,1,.13-.92,1,1,0,0,1,.83-.41l12.72.22a1,1,0,0,1,.94.73l2.79,10A1,1,0,0,0,156,99l5.2.77A1,1,0,0,1,162.12,100.71Z"/><path class="cls-69" d="M162.12,100.71a.33.33,0,0,1,0,.14,1,1,0,0,1-1,.86l-18.32-1a1.07,1.07,0,0,1-.46-.14,1,1,0,0,1-.52-.53l-4-11.41a1,1,0,0,1,.13-.92,1,1,0,0,1,.83-.41l12.72.22a1,1,0,0,1,.94.73l2.79,10A1,1,0,0,0,156,99l5.2.77A1,1,0,0,1,162.12,100.71Z"/><path class="cls-70" d="M164.08,100.14a1.42,1.42,0,0,1-.91,0,4.48,4.48,0,0,1-.87-.3c-.5-.28-1.59-1.28-2.62-1a7.76,7.76,0,0,1-2.76.14c-.38-.08-.38-.18-.75-.14s-.34-.44-.34-.44a15,15,0,0,1,3.55-1.69,10.72,10.72,0,0,1,3.67.74l.79.46,0,0,.43.24S164.34,100,164.08,100.14Z"/><path class="cls-71" d="M160.35,96.75l-1.68-.92s-.28.45-.11.69a1.83,1.83,0,0,0,.3.32A3.42,3.42,0,0,1,160.35,96.75Z"/><path class="cls-72" d="M147.45,100.94a4.72,4.72,0,0,0,2.54,1.73c1.84.58,5.12-.61,5.12-.61s1.08-.49.88-.6-5.47-.32-5.47-.32Z"/><path class="cls-9" d="M151.2,153.44s1.22.63,1.3,1.59l.09.53s4.59-.89,5.11-1.92l-.22-1.61a2.37,2.37,0,0,1-2.1.75c-1.09-.32-.88-1-.88-1Z"/><path class="cls-9" d="M160.91,154.82l-.4-.2,3-2.68s.64,1.57,2.92.31l.26,1.56a10.45,10.45,0,0,1-4.78,2.89A2.44,2.44,0,0,0,160.91,154.82Z"/><path class="cls-73" d="M151.2,153.44s1.22.63,1.3,1.59l.09.53s4.59-.89,5.11-1.92l-.22-1.61a2.37,2.37,0,0,1-2.1.75c-1.09-.32-.88-1-.88-1Z"/><path class="cls-74" d="M160.91,154.82l-.4-.2,3-2.68s.64,1.57,2.92.31l.26,1.56a10.45,10.45,0,0,1-4.78,2.89A2.44,2.44,0,0,0,160.91,154.82Z"/><path class="cls-9" d="M155.61,101.22l-6.91-.37-6.47-.35a.94.94,0,0,1-.45-.51l-.4-1.14L140,94.79l-2.15-6.17a1.39,1.39,0,0,1,.16-.35l6.37.08,6.73.09a.79.79,0,0,1,.69.67c.1.64,2.77,10.82,2.77,10.82A2,2,0,0,0,155.61,101.22Z"/><path class="cls-64" d="M155.61,101.22l-6.91-.37-6.47-.35a.94.94,0,0,1-.45-.51l-.4-1.14L140,94.79l-2.15-6.17a1.39,1.39,0,0,1,.16-.35l6.37.08,6.73.09a.79.79,0,0,1,.69.67c.1.64,2.77,10.82,2.77,10.82A2,2,0,0,0,155.61,101.22Z"/><path class="cls-64" d="M155.59,99.16s.86,1.89,0,2l5.57.23s.61-.14.55-.59a1.83,1.83,0,0,0-.55-.91l-5.31-.69Z"/><path class="cls-75" d="M155.57,100.83c.13,0,.18-.28.12-.57s-.22-.48-.34-.45-.19.28-.13.57S155.44,100.86,155.57,100.83Z"/><path class="cls-9" d="M154.51,101.22l-5.62-.24-6.47-.34a1,1,0,0,1-.45-.53l-.4-1.13,12,.28A5,5,0,0,0,154.51,101.22Z"/><path class="cls-61" d="M157.17,116.41s.6,4.88,1.93,5.89l-.41-5.74Z"/><polygon class="cls-61" points="165.81 114.9 166.39 151.03 168.21 114.39 165.81 114.9"/><path class="cls-76" d="M164.08,100.14a1.42,1.42,0,0,1-.91,0c.85-.22.67-2.22.67-2.22l0,0,.42.24S164.34,100,164.08,100.14Z"/><path class="cls-61" d="M157.65,118.94l-1,32.19a1.87,1.87,0,0,0,.94-.3l1.51-28.53Z"/><path class="cls-77" d="M144.33,88.37l-.22.5-3.66,6.32-.49-.4-2.15-6.17a1.58,1.58,0,0,1,.16-.35Z"/><rect class="cls-9" x="101.64" y="74.07" width="22.18" height="17.13"/><rect class="cls-78" x="101.64" y="74.07" width="22.18" height="17.13"/><rect class="cls-79" x="110.27" y="74" width="4" height="3.13"/><rect class="cls-80" x="112.3" y="77.13" width="0.31" height="12.19"/><rect class="cls-81" x="101.7" y="74.24" width="1.97" height="16.57"/><path class="cls-82" d="M101.64,80.72a11.21,11.21,0,0,0,0,1.2c0,.72,0,.57,0,1.13a2.07,2.07,0,0,1,0,.75c-.09.28.08-.27.28,0s0,.49.12.66.06.14-.12.29.22,0,0,0l-.5.27a1.36,1.36,0,0,1-.87,0C98.82,84.3,101,81.37,101.64,80.72Z"/><path class="cls-9" d="M95.1,85.91A4.52,4.52,0,0,0,97,85.13,11.22,11.22,0,0,0,99.34,83a8.42,8.42,0,0,1,2.44,3,.65.65,0,0,1-.1.86c-1.63,1.86-3.76,3.57-6.25,3.66a5.49,5.49,0,0,1-3.7-1.26c-1-.86-2.87-3.8-1.41-5,.77-.64,1.4.17,2,.62A3.9,3.9,0,0,0,95.1,85.91Z"/><path class="cls-82" d="M88,124.91a13.61,13.61,0,0,1-.16,2,20.5,20.5,0,0,1-1,3.16,37,37,0,0,0-1.31,5.07l-2.53,12.33a1,1,0,0,0,0,.53.83.83,0,0,0,.3.34,5.08,5.08,0,0,0,1.36.77.76.76,0,0,0,.49,0,.85.85,0,0,0,.44-.47,23.5,23.5,0,0,0,2.23-5.33c2.61-9,5.4-14.38,5.92-18.81.09-.72.87-1.37.49-2a2.82,2.82,0,0,0-1-1c-1-.65-3.22-2.58-4.53-1.81S88,123.76,88,124.91Z"/><path class="cls-82" d="M82.33,124.69a1.08,1.08,0,0,1-1.11,1c-6,.91-12.3,1-17.79,3.63a2,2,0,0,0-.91.67c-.51.78.15,1.85-.14,2.73a53.06,53.06,0,0,0,10.12-1l12.44-2a2.88,2.88,0,0,0,3-2.58l1-3.62a3.07,3.07,0,0,0,.06-2.15c-.44-.92-1.64-1.17-2.67-1.23C83.25,120,83.05,122.33,82.33,124.69Z"/><path class="cls-83" d="M82.33,124.69a1.08,1.08,0,0,1-1.11,1c-6,.91-12.3,1-17.79,3.63a2,2,0,0,0-.91.67c-.51.78.15,1.85-.14,2.73a53.06,53.06,0,0,0,10.12-1l12.44-2a2.88,2.88,0,0,0,3-2.58l1-3.62a3.07,3.07,0,0,0,.06-2.15c-.44-.92-1.64-1.17-2.67-1.23C83.25,120,83.05,122.33,82.33,124.69Z"/><path class="cls-82" d="M107.28,89.78c.09-.19.3-.4.46-.27a.37.37,0,0,1,.1.23l.14.93a.34.34,0,0,0,0,.17c.11.13.31,0,.44,0a11.42,11.42,0,0,0,2.12-1.87c.12-.13.29-.29.47-.22a.42.42,0,0,1,.18.23,3.09,3.09,0,0,1,.13,1.65,4.62,4.62,0,0,1-.66,1.94,2.82,2.82,0,0,1-1.62,1.21,7.66,7.66,0,0,0-1.61.33c-.3.15-.57.41-.9.37s-.62-.5-.66-.91C105.8,92.19,106.71,90.92,107.28,89.78Z"/><path class="cls-84" d="M90.8,75.28a6.3,6.3,0,0,0,1,3.47c.33.39.75.7,1,1.12a2.32,2.32,0,0,1,.42,1.32c-2.11-.09-4.18.86-6.28.68a10.12,10.12,0,0,1,.15-3.47c.37-1.58,1.13-3.12,1.06-4.73A2.62,2.62,0,0,1,88.43,72a.88.88,0,0,1,1.3-.21,4.63,4.63,0,0,1,.7,1.47A9,9,0,0,1,90.8,75.28Z"/><path class="cls-9" d="M89.38,82.08c3.72,2.15,5.22,10.07,5.81,12a28.51,28.51,0,0,1,1.09,9.1,9.36,9.36,0,0,1-.73,4,6.87,6.87,0,0,1-4.3,3.33,16.35,16.35,0,0,1-5.58.43,5.63,5.63,0,0,1-3.42-1c-1.25-1.06-1.37-2.9-1.39-4.53q-.12-9.7.19-19.41a9.73,9.73,0,0,1,.4-2.88A3.36,3.36,0,0,1,83.33,81C85,80.39,87.84,81.18,89.38,82.08Z"/><path class="cls-85" d="M89.38,82.08c3.72,2.15,5.22,10.07,5.81,12a28.51,28.51,0,0,1,1.09,9.1,9.36,9.36,0,0,1-.73,4,6.87,6.87,0,0,1-4.3,3.33,16.35,16.35,0,0,1-5.58.43,5.63,5.63,0,0,1-3.42-1c-1.25-1.06-1.37-2.9-1.39-4.53q-.12-9.7.19-19.41a9.73,9.73,0,0,1,.4-2.88A3.36,3.36,0,0,1,83.33,81C85,80.39,87.84,81.18,89.38,82.08Z"/><path class="cls-82" d="M90.8,77.76A1.75,1.75,0,0,1,90.4,79a1.56,1.56,0,0,1-1.23.33,9.52,9.52,0,0,0-1.3-.12.73.73,0,0,0-.8.62.38.38,0,0,0,0,.15c0,.6.25,1.17.25,1.77s-.47,1.29-1.06,1.16a1.22,1.22,0,0,1-.67-.53c-.84-1.21-.89-2.8-1.53-4.12A21,21,0,0,1,82.84,76,3.73,3.73,0,0,1,84,72.05c1.09-.94,3.63-1.64,4.82-.46C90.31,73.07,90.88,75.75,90.8,77.76Z"/><path class="cls-84" d="M88.39,69.36a3.3,3.3,0,0,1,.81.43,4,4,0,0,1,1.2,2l-3.09,1.64a.56.56,0,0,1-.31.09c-.22,0-.33-.35-.55-.36a2.41,2.41,0,0,1,.25.57l-1.21.86a1.15,1.15,0,0,0-.35.31,1.33,1.33,0,0,0-.16.78A34.75,34.75,0,0,0,86,82.48a3.6,3.6,0,0,1-1.5.43,21.42,21.42,0,0,0-5.75,1.72,7,7,0,0,0-.28-1.82,5.12,5.12,0,0,1-.34-1.49,4.22,4.22,0,0,1,.53-1.64c.33-.74.62-1.5.91-2.26A6.24,6.24,0,0,0,80,75.83a10.58,10.58,0,0,0-.18-2.1,2.81,2.81,0,0,1,.39-2c.62-.83,1.81-1.06,2.66-1.59A6.29,6.29,0,0,1,86.34,69,5.5,5.5,0,0,1,88.39,69.36Z"/><path class="cls-9" d="M90.65,99c.87.86,4.82,1.75,6.23,1.72,3.64,0,11.23-4.46,11.1-4.79l-2.23-5.41a17.84,17.84,0,0,1-6,2.84,6.9,6.9,0,0,1-6.26-1.57c-1.12-1.15-1.62-2.73-2.52-4s-2.57-2.42-4-1.82c-2,.79-2.4,4-1.7,5.66A24.46,24.46,0,0,0,90.65,99Z"/><path class="cls-84" d="M78.69,120.78c-.14.43-.3.86-.47,1.29-.47,1.18-.93,2.75.09,3.52a2.31,2.31,0,0,0,1.19.39c1.43.16,2.87-.11,4.3-.08,3.14.06,6,1.53,8.76,3.08a6,6,0,0,0,1.87.81,2,2,0,0,0,1.86-.55,2.9,2.9,0,0,0,.39-2L96,114.34c-.09-1.58.43-6.5-1.47-6.94-1.2-.29-3.07.3-4.34.38-1.53.1-3,.15-4.59.14a8.21,8.21,0,0,1-2.26-.25c-.43-.14-1.86-.92-2.34-.81-1.47.34-.84,5.14-.89,6.26A27.37,27.37,0,0,1,78.69,120.78Z"/><path class="cls-86" d="M78.69,120.78c-.14.43-.3.86-.47,1.29-.47,1.18-.93,2.75.09,3.52a2.31,2.31,0,0,0,1.19.39c1.43.16,2.87-.11,4.3-.08,3.14.06,6,1.53,8.76,3.08a6,6,0,0,0,1.87.81,2,2,0,0,0,1.86-.55,2.9,2.9,0,0,0,.39-2L96,114.34c-.09-1.58.43-6.5-1.47-6.94-1.2-.29-3.07.3-4.34.38-1.53.1-3,.15-4.59.14a8.21,8.21,0,0,1-2.26-.25c-.43-.14-1.86-.92-2.34-.81-1.47.34-.84,5.14-.89,6.26A27.37,27.37,0,0,1,78.69,120.78Z"/><path class="cls-87" d="M60.39,129.44a1.51,1.51,0,0,0-1,.38,1.58,1.58,0,0,0-.25,1.14,68.25,68.25,0,0,0,1,9.46c.07.39.2.86.58,1,.55.18,1-.49,1.17-1l2.45-7a1.33,1.33,0,0,0,.1-.71c-.1-.39-.53-.59-.79-.9-.5-.62-.17-1.67-.79-2.18S61,129.36,60.39,129.44Z"/><path class="cls-87" d="M80.66,149a1.49,1.49,0,0,0-.34,1,1.56,1.56,0,0,0,.68.95,69.53,69.53,0,0,0,7.79,5.6c.34.2.76.43,1.11.22s.28-1,0-1.55l-3.63-6.51a1.16,1.16,0,0,0-.44-.54c-.36-.2-.8,0-1.21,0-.8,0-1.36-1-2.17-.86S81,148.46,80.66,149Z"/><path class="cls-88" d="M60.39,129.44a1.51,1.51,0,0,0-1,.38,1.58,1.58,0,0,0-.25,1.14,68.25,68.25,0,0,0,1,9.46c.07.39.2.86.58,1,.55.18,1-.49,1.17-1l2.45-7a1.33,1.33,0,0,0,.1-.71c-.1-.39-.53-.59-.79-.9-.5-.62-.17-1.67-.79-2.18S61,129.36,60.39,129.44Z"/><path class="cls-89" d="M80.66,149a1.49,1.49,0,0,0-.34,1,1.56,1.56,0,0,0,.68.95,69.53,69.53,0,0,0,7.79,5.6c.34.2.76.43,1.11.22s.28-1,0-1.55l-3.63-6.51a1.16,1.16,0,0,0-.44-.54c-.36-.2-.8,0-1.21,0-.8,0-1.36-1-2.17-.86S81,148.46,80.66,149Z"/></svg>