<svg xmlns="http://www.w3.org/2000/svg" width="75" height="80" viewBox="0 0 75 80"><g transform="translate(2549 146)"><rect width="75" height="80" transform="translate(-2549 -146)" fill="none"/><path d="M321.523,190.722l-4.028,4.028a2.166,2.166,0,0,1-2.9.041l0,0a21.542,21.542,0,0,0-13.946-5.111h0c-4.2,0-8.4,1.386-8.4,5.241,0,3.9,4.5,5.2,9.7,7.147,9.1,3.032,16.634,6.844,16.634,15.767,0,9.7-7.537,16.374-19.839,17.11l-1.126,5.2a2.126,2.126,0,0,1-2.078,1.689H287.78l-.39-.043a2.168,2.168,0,0,1-1.643-2.57l0,.014,1.213-5.5a28.39,28.39,0,0,1-12.49-6.815l.015.014v-.043a2.079,2.079,0,0,1,0-2.945h0l4.332-4.2a2.123,2.123,0,0,1,2.9,0h0a20.948,20.948,0,0,0,14.684,5.718c5.631,0,9.4-2.382,9.4-6.151s-3.812-4.765-11-7.45c-7.624-2.729-14.858-6.584-14.858-15.594,0-10.483,8.707-15.594,19.016-16.07l1.083-5.328a2.083,2.083,0,0,1,2.034-1.646h7.756l.433.043a2.074,2.074,0,0,1,1.6,2.469l-1.17,5.934a32.506,32.506,0,0,1,10.742,6.021l.087.087a2.065,2.065,0,0,1,0,2.946Z" transform="translate(-2809.37 -313.721)" fill="none" stroke="#000" stroke-width="3"/></g></svg>